#!OML:ASF E:/inclinewalkrobotboard/Project1/Captureday1/Session1/subject1.ASF
:FULLY-SPECIFIED
:DEGREES
188
root 0 0 0 -1.7934187758084146 0.6634996845029657 -2.16931101379733
lowerback 10.678878939671607 -1.8545501736186756 -0.7715223856877957
upperback 0.5159623492186334 -2.3579293785141546 2.9035121667712747
thorax -5.279206729413753 -1.1218649793493258 3.8074862776654106
lowerneck -17.28335015737179 -2.323565449625498 -1.5527563523733714
upperneck 19.613936826591093 -2.6186004356079877 -0.7617965666777795
head 9.078931907795202 -1.4067250487521752 -0.33984027119702426
rclavicle 2.2126425435493277E-15 -2.5583730930071627E-15
rhumerus -32.968379343717324 -25.68652661030176 -75.34703954111346
rradius 24.120206820671335
rwrist 4.469902457439233
rhand -18.690233477725418 22.29701711295759
rfingers 7.125020000000017
rthumb 7.60718314400932 -7.636710405454373
lclavicle 9.56340748265909E-16 -1.970749613615018E-15
lhumerus -28.177932793189647 -3.200202579824853 82.42186547393165
lradius 30.339066466726855
lwrist 6.963388035700728
lhand -27.66486730529019 25.178700303577834
lfingers 7.125020000000014
lthumb -1.05687399061308 55.15384645754062
rfemur -20.649787016717863 4.683429087260423 22.97701409056541
rtibia 33.50537789650964
rfoot -6.248549106564001 -5.11399983406531
rtoes 7.639602825774456
lfemur 10.02953969782887 -2.6330936074613267 -20.27209464866725
ltibia 51.055774986155015
lfoot 12.824065491648192 -18.586824452783812
ltoes -12.3932430649129
189
root 0 0 0 -2.856309397124952 0.22269023477541516 -3.2780107251096404
lowerback 10.964390727892354 -1.5594363165680423 0.2874853161547366
upperback 0.9841333875939142 -1.8213887952972276 3.110019412760814
thorax -5.033076681039029 -0.8735573528377336 3.3656400139704625
lowerneck -16.289364852906882 -2.483823335995039 -1.5133679892686538
upperneck 22.03958530909513 -2.894896772966854 -0.599799399296898
head 9.72626392195947 -1.5132757143867277 -0.3383329105340343
rclavicle 3.189624647877058E-15 -4.2021878180664256E-15
rhumerus -32.79100428325314 -25.431639098083473 -75.67271252736809
rradius 23.81382512096394
rwrist 4.74261848622455
rhand -18.52440709768174 22.383358757124274
rfingers 7.125020000000017
rthumb 7.7689830383485 -7.525311511094483
lclavicle 1.53682899233131E-15 -4.031316240192194E-15
lhumerus -30.86871907317979 -2.4466312898976836 83.45373289326109
lradius 29.68431236183683
lwrist 6.800450388667052
lhand -27.41610867821663 24.367585653903358
lfingers 7.125020000000022
lthumb -0.8177703459552266 54.335516816721885
rfemur -18.75472309445998 5.943934180178104 25.603572690479325
rtibia 30.960909877287847
rfoot -8.60327446727868 -5.640294489114449
rtoes 10.664674188994788
lfemur -0.4144015009991717 -0.8426097716598919 -17.02839465278023
ltibia 58.04868200163956
lfoot 19.41544837194298 -21.260412703216208
ltoes -5.370937601930585
190
root 0 0 0 -3.675563620191512 -0.4816077590699781 -3.830483464685524
lowerback 12.264360905532271 -1.189397082564592 1.002095082933694
upperback 1.1398032774759321 -1.2321754016393387 3.0490277412135574
thorax -5.679394466228402 -0.5954994749590583 2.8205605715891755
lowerneck -16.125142663969424 -2.736075212470005 -1.4665025177068385
upperneck 22.147509547117966 -3.267358511174226 -0.5067060443614844
head 9.801624629182957 -1.6858328740525237 -0.35547645780761844
rclavicle 3.480672594734997E-15 -5.658140078116617E-15
rhumerus -32.57752208196128 -24.770978663972617 -76.11530963057861
rradius 23.665882145179616
rwrist 4.864327357789718
rhand -18.37699931604697 22.54833981331582
rfingers 7.125020000000018
rthumb 7.912292960648918 -7.342444519939228
lclavicle 9.55065122542018E-16 -5.539764690557878E-15
lhumerus -32.51933909208352 -2.069565874715615 84.1423785216697
lradius 29.238286711925845
lwrist 6.636948184240533
lhand -27.36606751446084 23.886322632941248
lfingers 7.125020000000026
lthumb -0.76517625124076 53.86233674639588
rfemur -17.51725984734171 6.313005509768593 26.498058291097728
rtibia 30.455228576339323
rfoot -9.729170237841974 -5.964338023721563
rtoes 11.575777313384844
lfemur -8.15558485571799 2.2125811673008835 -15.220410794595391
ltibia 69.86447323749363
lfoot 15.10598134746435 -19.542300782134756
ltoes -4.3590002962494445
191
root 0 0 0 -3.9433899072928895 -1.2904468652632155 -4.128379915363764
lowerback 12.234116234711209 -0.7967822033134794 1.7547450280928902
upperback 0.8473381382319847 -0.6452494304527718 2.787474755815556
thorax -6.006464259275749 -0.32532560627019746 2.0353847168950696
lowerneck -15.945185207438453 -2.8175696108222064 -1.4799813567838287
upperneck 21.6585945091823 -3.418377846889336 -0.3241729156180717
head 9.59430091735399 -1.752882236344765 -0.29957911150580024
rclavicle 2.6006550052497345E-15 -5.314157281071173E-15
rhumerus -32.165797142699105 -23.789761290002456 -76.50902429965346
rradius 24.190984371733904
rwrist 4.513237937190998
rhand -18.355729992069623 22.74266737727396
rfingers 7.12502000000002
rthumb 7.930768983380927 -7.146039049782221
lclavicle -6.129600517467031E-16 -5.228484280007412E-15
lhumerus -33.20869295503371 -1.8960277202743694 84.40564507586708
lradius 29.09365345241251
lwrist 6.633496559073144
lhand -27.382000619398553 23.60610484772697
lfingers 7.125020000000025
lthumb -0.7790887014742767 53.58733660216946
rfemur -16.081864119782743 6.52197233101516 27.241187420753164
rtibia 30.261476866431238
rfoot -11.226430965921075 -6.285366545136153
rtoes 11.410108395966578
lfemur -18.878537131039685 4.598529142636538 -15.111154236339006
ltibia 68.84339876199732
lfoot 4.810866021259493 -12.243223208385043
ltoes -1.8641445199338769
192
root 0 0 0 -3.492872776028365 -3.031394579357198 -5.391315369882339
lowerback 11.2221520899268 0.40131512761512184 3.841278066206171
upperback 0.11083310697180074 1.1649466345352277 2.3225505979184864
thorax -6.180141128241964 0.5061358976357628 0.09027434189805783
lowerneck -16.39144834713964 -3.0663082802713135 -1.3126404295486949
upperneck 23.000267779089135 -3.947113951883187 -0.08677596560441114
head 10.161470687607176 -1.9268349444050732 -0.3224982627158362
rclavicle 1.2512749333497746E-15 -1.0709111025401918E-15
rhumerus -31.42510402243512 -22.15115017882988 -76.98285114559694
rradius 25.91339822826386
rwrist 3.1386333610804185
rhand -18.59718007089872 22.946580706254824
rfingers 7.1250200000000214
rthumb 7.692862793464585 -6.935452990724343
lclavicle -2.096027307210201E-15 -8.64839551229076E-16
lhumerus -33.79819220130345 -1.6431952016504525 84.52930390893805
lradius 28.85904262137401
lwrist 6.674214403876684
lhand -27.335148111325772 23.58710750345181
lfingers 7.125020000000025
lthumb -0.7345070469979333 53.56509278426181
rfemur -7.372657049874111 7.660258682248591 32.75595450409629
rtibia 31.206198126587864
rfoot -17.760782951002042 -7.038139288225172
rtoes 9.691949709677095
lfemur -23.68831499031081 5.6369444390068875 -14.96866399587046
ltibia 67.23607369121729
lfoot -0.4076501619414419 -8.457928844176147
ltoes -0.3162988912844362
